<svg width="400" height="400" viewBox="0 0 400 400" fill="none" xmlns="http://www.w3.org/2000/svg">
<circle cx="200" cy="200" r="195" fill="#e4e4e7"/>
<path d="M200 50C130 50 90 110 90 220C90 330 140 370 200 370C260 370 310 330 310 220C310 110 270 50 200 50Z" fill="#121212"/>
<path d="M200 210C160 210 135 240 135 295C135 330 160 355 200 355C240 355 265 330 265 295C265 240 240 210 200 210Z" fill="white"/>
<path d="M130 145C176.667 158.333 223.333 158.333 270 145L265 185C221.667 198.333 178.333 198.333 135 185L130 145Z" fill="white"/>
<path d="M155 160L190 168V173L160 168L155 160Z" fill="#121212"/>
<path d="M245 160L210 168V173L240 168L245 160Z" fill="#121212"/>
<path d="M178 173C179.657 173 181 171.657 181 170C181 168.343 179.657 167 178 167C176.343 167 175 168.343 175 170C175 171.657 176.343 173 178 173Z" fill="#121212"/>
<path d="M222 173C223.657 173 225 171.657 225 170C225 168.343 223.657 167 222 167C220.343 167 219 168.343 219 170C219 171.657 220.343 173 222 173Z" fill="#121212"/>
<path d="M190 180L200 198L210 180H190Z" fill="#FF9100"/>
<path d="M92 131C164 144.333 236 144.333 308 131L305 149C235 162.333 165 162.333 95 149L92 131Z" fill="#D32F2F"/>
<path d="M95 141L40 121L55 161L95 141Z" fill="#D32F2F"/>
<path d="M95 149L50 181L70 191L95 149Z" fill="#B71C1C"/>
<path d="M150 355C156.667 368.333 168.333 371.667 185 365" stroke="#121212" stroke-width="6" stroke-linecap="round"/>
<path d="M250 355C243.333 368.333 231.667 371.667 215 365" stroke="#121212" stroke-width="6" stroke-linecap="round"/>
</svg>
